<svg width="24" height="24" viewBox="0 0 24 24" fill="none" xmlns="http://www.w3.org/2000/svg">
<rect width="24" height="24" fill="#1E1E1E"/>
<g id="Fruit Burst Website Landing Page Design">
<rect width="1920" height="4094" transform="translate(-1576 -98)" fill="white"/>
<rect id="Rectangle 2" x="-1336" y="-48" width="1440" height="120" rx="60" fill="#F85559"/>
<g id="Group 3">
<rect id="Rectangle 1" x="-346" y="-16" width="400" height="56" rx="28" fill="white"/>
<g id="Frame">
<path id="Vector" d="M21 21L15.803 15.803M15.803 15.803C17.2096 14.3965 17.9998 12.4887 17.9998 10.4995C17.9998 8.51035 17.2096 6.60262 15.803 5.19605C14.3964 3.78947 12.4887 2.99927 10.4995 2.99927C8.51029 2.99927 6.60256 3.78947 5.19599 5.19605C3.78941 6.60262 2.99921 8.51035 2.99921 10.4995C2.99921 12.4887 3.78941 14.3965 5.19599 15.803C6.60256 17.2096 8.51029 17.9998 10.4995 17.9998C12.4887 17.9998 14.3964 17.2096 15.803 15.803Z" stroke="#121212" stroke-width="1.5" stroke-linecap="round" stroke-linejoin="round"/>
</g>
</g>
</g>
</svg>
